<svg xmlns="http://www.w3.org/2000/svg" width="246" height="45" viewBox="0 0 246 45"><path fill="#002760" fill-rule="evenodd" d="M.412 43.856V13.548H5.79c.448 0 .823.04 1.125.117.302.078.556.2.76.365.205.166.36.385.468.658.107.273.2.604.277.994l.44 2.572c.954-1.637 2.04-2.928 3.258-3.873 1.217-.943 2.615-1.415 4.194-1.415 1.363 0 2.474.32 3.33.964l-.583 6.663c-.1.428-.26.72-.484.876-.225.155-.53.233-.92.233-.157 0-.362-.01-.615-.03-.252-.018-.515-.043-.79-.072-.27-.03-.55-.06-.83-.087-.283-.03-.54-.044-.775-.044-1.325 0-2.382.355-3.17 1.066-.79.71-1.458 1.69-2.003 2.937v18.384H.412zm42.32 0c-.857 0-1.505-.117-1.944-.35-.438-.235-.803-.722-1.096-1.462l-.643-1.666c-.76.643-1.49 1.208-2.193 1.695-.702.487-1.428.9-2.178 1.242-.75.34-1.55.594-2.397.76-.848.165-1.788.248-2.82.248-1.384 0-2.64-.18-3.77-.54-1.13-.36-2.09-.892-2.88-1.593-.79-.702-1.398-1.574-1.826-2.616-.43-1.042-.643-2.246-.643-3.61 0-1.07.273-2.172.818-3.302.546-1.13 1.49-2.158 2.835-3.083 1.344-.928 3.156-1.7 5.436-2.326 2.28-.623 5.154-.974 8.622-1.052v-1.286c0-1.773-.366-3.054-1.096-3.843-.73-.79-1.77-1.184-3.114-1.184-1.07 0-1.948.116-2.63.35-.682.234-1.29.497-1.827.79-.537.29-1.058.554-1.564.79-.507.232-1.11.35-1.812.35-.624 0-1.15-.157-1.58-.47-.427-.31-.778-.68-1.05-1.11l-1.637-2.834c1.83-1.617 3.862-2.82 6.093-3.61 2.232-.79 4.624-1.183 7.176-1.183 1.832 0 3.483.297 4.954.89 1.47.595 2.718 1.423 3.74 2.485 1.024 1.06 1.808 2.323 2.354 3.784.545 1.46.818 3.06.818 4.793v18.94h-4.15zm-10.405-5.524c1.17 0 2.192-.205 3.07-.614.876-.41 1.763-1.07 2.66-1.987v-4.207c-1.813.078-3.304.234-4.473.468-1.17.235-2.094.527-2.776.878-.682.35-1.155.75-1.418 1.198-.263.448-.394.935-.394 1.46 0 1.034.282 1.76.847 2.18.565.417 1.393.627 2.484.627zm17.098-24.784h7.248c.643 0 1.184.15 1.622.453.438.304.735.68.89 1.127l3.04 13.59c.254 1.033.473 2.037.658 3.01.186.975.356 1.94.512 2.894.273-.954.55-1.92.833-2.892.282-.974.59-1.978.92-3.01l3.8-13.62c.156-.448.448-.823.877-1.125.428-.302.935-.453 1.52-.453h4.033c.643 0 1.183.15 1.622.452.438.302.735.677.89 1.125l3.625 13.62c.292 1.032.575 2.036.848 3.01.272.974.535 1.958.79 2.952.155-.977.34-1.95.554-2.925.214-.974.458-1.987.73-3.04l3.216-13.59c.155-.448.448-.823.876-1.125.427-.3.934-.452 1.52-.452h6.896l-9.41 30.308H80.17c-.39 0-.72-.117-.993-.35-.273-.235-.487-.625-.643-1.17l-4.325-15.11c-.217-.682-.407-1.354-.57-2.017-.168-.664-.32-1.327-.455-1.99-.137.683-.288 1.36-.453 2.03-.166.674-.356 1.35-.57 2.033L67.78 42.336c-.293 1.013-.936 1.52-1.93 1.52h-7.014l-9.41-30.308zm51.467 30.308V1.273h15.665c2.942 0 5.446.273 7.51.818 2.067.548 3.752 1.318 5.058 2.31 1.305.995 2.255 2.203 2.85 3.625.593 1.423.89 3.01.89 4.764 0 .954-.136 1.875-.41 2.76-.27.888-.7 1.72-1.285 2.5-.584.78-1.334 1.486-2.25 2.12-.916.632-2.017 1.183-3.303 1.65 2.806.682 4.88 1.79 6.226 3.317 1.344 1.53 2.016 3.493 2.016 5.89 0 1.81-.353 3.497-1.054 5.056-.7 1.558-1.73 2.917-3.083 4.077-1.354 1.158-3.025 2.064-5.013 2.717-1.986.652-4.256.98-6.808.98h-17.01zm9.88-18.062v10.61h6.954c1.306 0 2.373-.167 3.2-.498.83-.33 1.477-.76 1.944-1.286.468-.526.79-1.12.965-1.783.175-.662.263-1.334.263-2.016 0-.78-.103-1.48-.307-2.102-.203-.624-.554-1.15-1.05-1.58-.497-.427-1.155-.76-1.973-.992-.818-.234-1.85-.35-3.098-.35h-6.898zm0-6.605h5.142c1.09 0 2.075-.08 2.952-.236.877-.156 1.622-.43 2.236-.818.614-.39 1.08-.926 1.403-1.608.32-.683.482-1.54.482-2.573 0-1.013-.127-1.856-.38-2.528-.253-.673-.643-1.214-1.17-1.623-.525-.41-1.192-.7-2-.877-.81-.175-1.77-.263-2.88-.263h-5.786V19.19zM147.594.102v43.752h-9.06V.105h9.06zm20.108 12.977c2.3 0 4.394.36 6.284 1.082 1.89.72 3.512 1.753 4.866 3.098 1.354 1.344 2.406 2.976 3.156 4.895.75 1.92 1.125 4.077 1.125 6.474 0 2.414-.376 4.59-1.126 6.53-.75 1.94-1.803 3.585-3.157 4.94-1.354 1.353-2.976 2.396-4.866 3.126-1.89.73-3.985 1.096-6.284 1.096-2.32 0-4.428-.365-6.327-1.096-1.9-.73-3.537-1.773-4.91-3.127-1.374-1.355-2.436-3-3.186-4.94-.75-1.94-1.125-4.116-1.125-6.53 0-2.4.375-4.557 1.125-6.476.75-1.92 1.812-3.55 3.186-4.895 1.373-1.346 3.01-2.378 4.91-3.1 1.9-.72 4.008-1.08 6.327-1.08zm0 24.52c2.085 0 3.62-.734 4.603-2.205.984-1.47 1.476-3.707 1.476-6.708 0-3-.49-5.23-1.475-6.693-.984-1.46-2.518-2.19-4.603-2.19-2.143 0-3.712.73-4.705 2.19-.994 1.462-1.49 3.693-1.49 6.693 0 3 .496 5.237 1.49 6.708.993 1.47 2.562 2.206 4.705 2.206zm42.26-16.862c-.272.33-.535.594-.788.79-.253.194-.614.29-1.08.29-.45 0-.854-.106-1.214-.32-.36-.215-.764-.453-1.212-.716-.448-.263-.974-.502-1.578-.716-.604-.215-1.354-.322-2.25-.322-1.11 0-2.07.205-2.88.614-.808.41-1.475.994-2.002 1.753-.526.76-.915 1.693-1.17 2.793-.252 1.1-.378 2.343-.378 3.727 0 2.902.56 5.133 1.68 6.692 1.12 1.558 2.664 2.338 4.632 2.338 1.053 0 1.885-.132 2.5-.395.613-.263 1.134-.555 1.563-.877.428-.32.823-.618 1.183-.89.36-.274.814-.41 1.36-.41.72 0 1.266.263 1.636.79l2.63 3.243c-.935 1.074-1.92 1.946-2.95 2.618-1.034.672-2.09 1.198-3.172 1.578-1.082.38-2.168.643-3.26.79-1.09.145-2.152.218-3.185.218-1.85 0-3.62-.35-5.304-1.052-1.686-.7-3.166-1.718-4.443-3.053-1.276-1.336-2.29-2.977-3.04-4.926-.75-1.948-1.124-4.17-1.124-6.663 0-2.182.326-4.223.98-6.123.65-1.9 1.616-3.546 2.892-4.94 1.276-1.392 2.854-2.488 4.735-3.287 1.88-.8 4.057-1.2 6.532-1.2 2.377 0 4.462.38 6.254 1.14 1.79.76 3.41 1.87 4.85 3.332l-2.397 3.186zM225.192.104v24.52h1.345c.565 0 .994-.082 1.286-.248.294-.165.586-.443.878-.833l5.73-8.534c.35-.49.75-.854 1.2-1.098.446-.243 1.02-.365 1.722-.365h8.3l-7.833 10.785c-.74.974-1.62 1.773-2.63 2.396.446.33.856.715 1.226 1.154.37.438.72.93 1.052 1.475L246 43.855h-8.183c-.682 0-1.267-.112-1.754-.336-.487-.226-.896-.62-1.227-1.185l-5.73-10.726c-.272-.488-.554-.805-.846-.95-.293-.147-.73-.22-1.315-.22h-1.754v13.415h-9.06V.105h9.06z"/></svg>