<svg xmlns="http://www.w3.org/2000/svg" width="246" height="45" viewBox="0 0 246 45"><path fill="#002760" fill-rule="evenodd" d="M.412 43.856V13.548H5.79c.448 0 .823.04 1.125.117.302.078.556.2.76.365.205.166.36.385.468.658.107.273.2.604.277.994l.44 2.572c.954-1.637 2.04-2.928 3.258-3.873 1.217-.94 2.615-1.41 4.194-1.41 1.363 0 2.474.32 3.33.97l-.582 6.66c-.1.43-.26.72-.49.878-.225.154-.53.232-.92.232-.157 0-.36-.01-.615-.03a23.173 23.173 0 0 1-.79-.073c-.27-.03-.55-.06-.83-.087a7.382 7.382 0 0 0-.776-.045c-1.33 0-2.38.354-3.17 1.065-.79.71-1.46 1.69-2.01 2.932V43.86H.412zm42.32 0c-.857 0-1.505-.117-1.944-.35-.438-.235-.803-.722-1.096-1.462l-.643-1.666c-.76.643-1.49 1.208-2.2 1.695-.7.487-1.43.9-2.18 1.242-.75.34-1.55.594-2.4.76a14.79 14.79 0 0 1-2.82.248c-1.385 0-2.64-.18-3.77-.54-1.13-.36-2.09-.892-2.88-1.593-.79-.702-1.4-1.574-1.827-2.616-.43-1.042-.643-2.246-.643-3.61 0-1.07.274-2.172.82-3.302.545-1.13 1.49-2.158 2.834-3.083 1.346-.93 3.158-1.7 5.438-2.33 2.28-.63 5.155-.98 8.623-1.05v-1.29c0-1.78-.365-3.06-1.095-3.85s-1.77-1.184-3.113-1.184c-1.07 0-1.947.116-2.63.35-.68.234-1.29.497-1.826.79a29.09 29.09 0 0 1-1.56.79c-.508.232-1.11.35-1.813.35-.623 0-1.15-.157-1.58-.47a4.055 4.055 0 0 1-1.05-1.11l-1.636-2.834a18.408 18.408 0 0 1 6.093-3.61c2.232-.79 4.624-1.184 7.176-1.184 1.834 0 3.485.3 4.956.89 1.47.595 2.717 1.423 3.74 2.485 1.023 1.06 1.807 2.32 2.353 3.782.545 1.46.82 3.06.82 4.796v18.94h-4.15zm-10.405-5.524c1.17 0 2.192-.205 3.07-.614.876-.41 1.763-1.07 2.66-1.987v-4.2c-1.813.08-3.304.24-4.473.47-1.17.24-2.094.53-2.776.88-.682.35-1.155.75-1.418 1.2a2.823 2.823 0 0 0-.394 1.46c0 1.036.282 1.76.847 2.18.565.42 1.393.63 2.484.63zm17.098-24.784h7.248c.643 0 1.184.15 1.622.453.438.31.735.68.89 1.13l3.04 13.59c.254 1.04.473 2.04.658 3.01.186.98.356 1.94.512 2.9.273-.95.55-1.92.833-2.89.282-.97.59-1.975.92-3.01l3.8-13.62c.156-.445.448-.82.877-1.122.428-.302.935-.453 1.52-.453h4.033c.643 0 1.183.15 1.622.45.438.3.735.678.89 1.126l3.625 13.62c.292 1.03.575 2.035.848 3.01.272.973.535 1.957.79 2.95.155-.976.34-1.95.554-2.924.214-.974.458-1.99.73-3.04l3.216-13.59c.155-.45.448-.823.876-1.125.42-.3.93-.45 1.52-.45h6.89l-9.41 30.3h-7.36c-.39 0-.72-.114-.996-.35-.273-.232-.487-.622-.643-1.17l-4.32-15.11c-.22-.68-.41-1.353-.57-2.016a44.26 44.26 0 0 1-.458-1.99c-.137.684-.288 1.36-.453 2.03-.17.675-.36 1.35-.57 2.034L67.78 42.34c-.294 1.014-.937 1.52-1.93 1.52h-7.015l-9.41-30.307zm51.467 30.308V1.273h15.665c2.942 0 5.446.273 7.51.818 2.067.55 3.752 1.32 5.058 2.31 1.305 1 2.255 2.21 2.85 3.63.593 1.43.89 3.01.89 4.77 0 .957-.136 1.878-.41 2.76-.27.89-.7 1.72-1.285 2.5-.584.78-1.334 1.49-2.25 2.12-.916.635-2.017 1.186-3.303 1.65 2.806.685 4.88 1.79 6.226 3.32 1.344 1.53 2.016 3.494 2.016 5.89 0 1.81-.36 3.498-1.06 5.057-.7 1.558-1.73 2.917-3.09 4.077-1.354 1.16-3.025 2.065-5.013 2.718-1.987.654-4.257.98-6.81.98h-17.01zm9.88-18.062v10.61h6.954c1.306 0 2.373-.167 3.2-.498.83-.33 1.477-.76 1.944-1.286.468-.526.79-1.12.965-1.783a7.856 7.856 0 0 0 .263-2.016c0-.78-.103-1.48-.307-2.1-.2-.62-.55-1.15-1.05-1.58-.49-.42-1.15-.76-1.97-.99-.82-.23-1.85-.35-3.1-.35h-6.89zm0-6.605h5.142c1.09 0 2.075-.08 2.952-.24.877-.16 1.622-.43 2.236-.82.614-.39 1.08-.93 1.403-1.61.32-.688.482-1.54.482-2.578 0-1.013-.127-1.856-.38-2.528-.253-.674-.643-1.215-1.17-1.624-.525-.41-1.192-.7-2-.876-.81-.176-1.77-.264-2.88-.264h-5.786v10.53zM147.594.1v43.752h-9.06V.104h9.06zm20.108 12.977c2.3 0 4.394.36 6.284 1.08 1.89.72 3.512 1.754 4.866 3.1 1.354 1.343 2.406 2.975 3.156 4.894.75 1.92 1.125 4.08 1.125 6.48 0 2.42-.376 4.59-1.126 6.53-.75 1.94-1.803 3.59-3.157 4.94-1.354 1.36-2.976 2.4-4.866 3.13-1.89.73-3.985 1.1-6.284 1.1-2.32 0-4.428-.366-6.327-1.097-1.9-.73-3.537-1.772-4.91-3.126-1.374-1.354-2.436-3-3.186-4.94-.75-1.94-1.125-4.115-1.125-6.53 0-2.4.375-4.556 1.125-6.475.75-1.92 1.812-3.55 3.186-4.892 1.373-1.346 3.01-2.378 4.91-3.1 1.9-.72 4.008-1.08 6.327-1.08zm0 24.52c2.085 0 3.62-.735 4.603-2.206.984-1.47 1.476-3.7 1.476-6.7s-.49-5.23-1.47-6.69-2.52-2.19-4.6-2.19c-2.14 0-3.71.73-4.7 2.19-.994 1.464-1.49 3.695-1.49 6.695s.496 5.237 1.49 6.708c.993 1.47 2.56 2.208 4.705 2.208zm42.26-16.863a5.1 5.1 0 0 1-.788.79c-.253.194-.614.29-1.08.29-.45 0-.854-.106-1.214-.32-.36-.215-.764-.453-1.212-.716a9.327 9.327 0 0 0-1.578-.715c-.604-.215-1.354-.322-2.25-.322-1.11 0-2.07.21-2.88.62a5.36 5.36 0 0 0-2.002 1.76c-.526.76-.915 1.692-1.17 2.792-.252 1.1-.378 2.344-.378 3.728 0 2.903.56 5.134 1.68 6.693 1.12 1.558 2.664 2.338 4.632 2.338 1.053 0 1.885-.13 2.5-.393a7.524 7.524 0 0 0 1.563-.876c.428-.32.823-.62 1.183-.89.36-.274.814-.41 1.36-.41.72 0 1.266.263 1.636.79l2.63 3.243c-.935 1.073-1.92 1.945-2.95 2.62a14.93 14.93 0 0 1-3.172 1.575c-1.082.38-2.168.643-3.26.79-1.09.145-2.152.218-3.185.218-1.85 0-3.62-.35-5.304-1.05a12.99 12.99 0 0 1-4.443-3.054c-1.276-1.337-2.29-2.978-3.04-4.927-.75-1.948-1.124-4.17-1.124-6.663 0-2.18.326-4.22.98-6.12.65-1.9 1.616-3.546 2.892-4.94 1.276-1.392 2.854-2.49 4.735-3.29 1.88-.8 4.057-1.2 6.532-1.2 2.377 0 4.462.38 6.254 1.14 1.79.76 3.41 1.87 4.85 3.337l-2.4 3.186zm15.23-20.63v24.52h1.345c.565 0 .994-.082 1.286-.248.294-.165.586-.443.878-.833l5.73-8.534c.35-.49.75-.86 1.2-1.1.45-.25 1.02-.37 1.73-.37h8.3l-7.84 10.79a9.683 9.683 0 0 1-2.63 2.39c.45.33.86.715 1.23 1.154.37.44.72.93 1.05 1.48l8.53 14.5h-8.18c-.68 0-1.265-.115-1.752-.34-.487-.225-.896-.62-1.227-1.184l-5.73-10.725c-.272-.49-.554-.802-.846-.95-.292-.144-.73-.22-1.314-.22h-1.756v13.42h-9.06V.105h9.06z"/></svg>