<?xml version="1.0" encoding="UTF-8" standalone="no"?>
<svg width="246px" height="45px" viewBox="0 0 246 45" version="1.1" xmlns="http://www.w3.org/2000/svg" xmlns:xlink="http://www.w3.org/1999/xlink" xmlns:sketch="http://www.bohemiancoding.com/sketch/ns">
    <!-- Generator: Sketch 3.3.3 (12081) - http://www.bohemiancoding.com/sketch -->
    <title>rawBlock</title>
    <desc>Created with Sketch.</desc>
    <defs></defs>
    <g id="Page-1" stroke="none" stroke-width="1" fill="none" fill-rule="evenodd" sketch:type="MSPage">
        <g id="Desktop-HD" sketch:type="MSArtboardGroup" transform="translate(-128.000000, -61.000000)" fill="#002760">
            <path d="M128.4125,104.855666 L128.4125,74.5481283 L133.790115,74.5481283 C134.238252,74.5481283 134.613317,74.5870962 134.915323,74.665033 C135.217328,74.7429699 135.470619,74.8647444 135.675203,75.0303601 C135.879787,75.1959759 136.035659,75.41517 136.142822,75.6879489 C136.249985,75.9607279 136.342534,76.2919545 136.42047,76.6816387 L136.858863,79.2535416 C137.813589,77.6168679 138.899818,76.3260584 140.117581,75.3810742 C141.335344,74.43609 142.733315,73.963605 144.311536,73.963605 C145.675431,73.963605 146.786014,74.2850896 147.643319,74.9280685 L147.058796,81.5916351 C146.961375,82.0202878 146.800633,82.3125465 146.576564,82.4684202 C146.352496,82.6242939 146.045624,82.7022296 145.65594,82.7022296 C145.500066,82.7022296 145.295485,82.6924876 145.04219,82.6730034 C144.788896,82.6535192 144.525863,82.6291643 144.253084,82.599938 C143.980305,82.5707117 143.702659,82.5414858 143.420138,82.5122595 C143.137617,82.4830331 142.879455,82.4684202 142.645644,82.4684202 C141.320718,82.4684202 140.263716,82.8240017 139.474605,83.5351754 C138.685495,84.2463491 138.01817,85.2254159 137.472612,86.4724054 L137.472612,104.855666 L128.4125,104.855666 Z M170.731993,104.855666 C169.874688,104.855666 169.226848,104.738762 168.788453,104.504952 C168.350058,104.271141 167.984735,103.784043 167.692471,103.043643 L167.049496,101.377752 C166.289612,102.020731 165.558965,102.585764 164.857533,103.07287 C164.156101,103.559975 163.430326,103.974008 162.680183,104.314982 C161.930041,104.655955 161.131201,104.909246 160.283638,105.074862 C159.436074,105.240478 158.495975,105.323285 157.463312,105.323285 C156.079933,105.323285 154.823221,105.143058 153.693136,104.7826 C152.563052,104.422143 151.603469,103.891206 150.814359,103.189774 C150.025248,102.488343 149.416376,101.616437 148.987723,100.574032 C148.559071,99.5316268 148.344747,98.3284949 148.344747,96.9646001 C148.344747,95.8929686 148.617522,94.7921272 149.16308,93.662043 C149.708638,92.5319588 150.653608,91.5041822 151.998019,90.5786822 C153.342429,89.6531822 155.154433,88.8786964 157.434086,88.2552017 C159.713739,87.631707 162.587617,87.2809965 166.055806,87.2030596 L166.055806,85.9171082 C166.055806,84.144045 165.690483,82.8629774 164.959825,82.0738669 C164.229167,81.2847564 163.191648,80.8902071 161.847238,80.8902071 C160.775606,80.8902071 159.89883,81.0071106 159.216882,81.2409211 C158.534935,81.4747316 157.926063,81.7377645 157.390247,82.0300277 C156.854431,82.3222908 156.333236,82.5853237 155.826647,82.8191342 C155.320057,83.0529448 154.716056,83.1698483 154.014624,83.1698483 C153.39113,83.1698483 152.865064,83.0139769 152.436411,82.7022296 C152.007758,82.3904822 151.657048,82.0202878 151.384269,81.5916351 L149.747604,78.7566967 C151.579119,77.1395073 153.610318,75.9363753 155.84126,75.1472648 C158.072202,74.3581543 160.463853,73.963605 163.016284,73.963605 C164.8478,73.963605 166.499062,74.2607347 167.97012,74.8550031 C169.441178,75.4492715 170.688149,76.2773381 171.71107,77.3392275 C172.733991,78.401117 173.518218,79.6627007 174.063776,81.1240164 C174.609334,82.5853322 174.882109,84.1830135 174.882109,85.9171082 L174.882109,104.855666 L170.731993,104.855666 Z M160.327477,99.3319199 C161.496529,99.3319199 162.519435,99.1273387 163.396225,98.7181703 C164.273014,98.3090019 165.159532,97.6465487 166.055806,96.7307908 L166.055806,92.5222224 C164.243774,92.6001593 162.753255,92.7560306 161.584202,92.9898411 C160.415149,93.2236517 159.489663,93.5159104 158.807716,93.8666262 C158.125769,94.217342 157.653284,94.6167623 157.390247,95.0648991 C157.12721,95.513036 156.995694,96.0001339 156.995694,96.5262076 C156.995694,97.5588707 157.27821,98.2846467 157.843252,98.7035572 C158.408295,99.1224677 159.236361,99.3319199 160.327477,99.3319199 L160.327477,99.3319199 Z M177.424786,74.5481283 L184.672876,74.5481283 C185.315855,74.5481283 185.856533,74.6991287 186.294928,75.001134 C186.733323,75.3031392 187.030453,75.6782046 187.186326,76.1263415 L190.225848,89.7165102 C190.479143,90.7491733 190.698337,91.7525951 190.883437,92.7268056 C191.068537,93.7010161 191.239021,94.6654701 191.394895,95.6201964 C191.667674,94.6654701 191.945319,93.7010161 192.227841,92.7268056 C192.510362,91.7525951 192.817233,90.7491733 193.148465,89.7165102 L196.947867,76.0971153 C197.103741,75.6489785 197.395999,75.2739131 197.824652,74.9719078 C198.253305,74.6699025 198.759886,74.5189022 199.344413,74.5189022 L203.377624,74.5189022 C204.020603,74.5189022 204.561282,74.6699025 204.999676,74.9719078 C205.438071,75.2739131 205.735201,75.6489785 205.891075,76.0971153 L209.51512,89.7165102 C209.807383,90.7491733 210.0899,91.7525951 210.362679,92.7268056 C210.635457,93.7010161 210.89849,94.684954 211.151785,95.6786487 C211.307659,94.7044382 211.492756,93.7302423 211.707082,92.7560318 C211.921409,91.7818213 212.164958,90.7686575 212.437737,89.7165102 L215.652615,76.1263415 C215.808489,75.6782046 216.100748,75.3031392 216.5294,75.001134 C216.958053,74.6991287 217.464635,74.5481283 218.049161,74.5481283 L224.946537,74.5481283 L215.53571,104.855666 L208.170716,104.855666 C207.781032,104.855666 207.449805,104.738762 207.177026,104.504952 C206.904247,104.271141 206.689924,103.881463 206.53405,103.335905 L202.208577,88.2259755 C201.994251,87.5440282 201.804283,86.871833 201.638667,86.2093699 C201.473051,85.5469067 201.322051,84.8844535 201.185661,84.2219904 C201.049272,84.9039377 200.898272,85.5810039 200.732656,86.2532091 C200.56704,86.9254144 200.377072,87.6024805 200.162745,88.2844279 L195.77882,103.335905 C195.486557,104.349084 194.843588,104.855666 193.849893,104.855666 L186.835612,104.855666 L177.424786,74.5481283 Z M228.89207,104.855666 L228.89207,62.2731373 L244.557297,62.2731373 C247.499412,62.2731373 250.003096,62.5459121 252.068422,63.09147 C254.133748,63.6370279 255.819107,64.4066427 257.124549,65.4003374 C258.429991,66.3940321 259.379832,67.602035 259.974101,69.0243824 C260.568369,70.4467297 260.865499,72.034669 260.865499,73.7882479 C260.865499,74.7429742 260.729112,75.6635894 260.456333,76.5501209 C260.183554,77.4366525 259.754907,78.26959 259.170381,79.0489584 C258.585855,79.8283268 257.835724,80.5346188 256.919966,81.1678557 C256.004208,81.8010925 254.903367,82.3515132 253.617409,82.8191342 C256.423135,83.5010816 258.498172,84.6067939 259.842583,86.1363044 C261.186994,87.6658149 261.859189,89.6288197 261.859189,92.0253775 C261.859189,93.8374091 261.508478,95.522768 260.807047,97.0815048 C260.105615,98.6402416 259.077838,99.9992449 257.723686,101.158555 C256.369533,102.317866 254.698787,103.223868 252.711398,103.876589 C250.724008,104.52931 248.454132,104.855666 245.9017,104.855666 L228.89207,104.855666 Z M238.770515,86.7938933 L238.770515,97.4029927 L245.726343,97.4029927 C247.031785,97.4029927 248.09853,97.2373794 248.926609,96.9061478 C249.754688,96.5749162 250.402528,96.14627 250.870149,95.6201964 C251.33777,95.0941227 251.659255,94.4998632 251.834613,93.8374 C252.009971,93.1749369 252.097648,92.5027417 252.097648,91.8207944 C252.097648,91.0414259 251.995358,90.3400049 251.790773,89.7165102 C251.586189,89.0930154 251.235479,88.5669497 250.738631,88.138297 C250.241784,87.7096444 249.584202,87.3784178 248.765865,87.1446073 C247.947528,86.9107968 246.91488,86.7938933 245.667891,86.7938933 L238.770515,86.7938933 Z M238.770515,80.188779 L243.914321,80.188779 C245.005437,80.188779 245.989374,80.1108433 246.866164,79.9549697 C247.742953,79.799096 248.488213,79.5263211 249.101966,79.1366369 C249.715718,78.7469527 250.183332,78.211145 250.504822,77.5291976 C250.826311,76.8472502 250.987054,75.9899579 250.987054,74.9572947 C250.987054,73.9441158 250.860408,73.1014363 250.607114,72.4292311 C250.353819,71.7570258 249.96414,71.2163471 249.438067,70.8071787 C248.911993,70.3980103 248.244669,70.1057515 247.436074,69.9303936 C246.627479,69.7550357 245.667896,69.6673581 244.557297,69.6673581 L238.770515,69.6673581 L238.770515,80.188779 Z M275.595488,61.1040905 L275.595488,104.855666 L266.535376,104.855666 L266.535376,61.1040905 L275.595488,61.1040905 Z M295.703093,74.0805096 C298.002229,74.0805096 300.096751,74.4409621 301.986719,75.1618779 C303.876687,75.8827937 305.498724,76.9154413 306.852876,78.2598518 C308.207029,79.6042623 309.25916,81.2360405 310.009302,83.1552352 C310.759445,85.0744299 311.13451,87.2322738 311.13451,89.6288317 C311.13451,92.0448737 310.759445,94.2222016 310.009302,96.1608805 C309.25916,98.0995594 308.207029,99.7459505 306.852876,101.100103 C305.498724,102.454256 303.876687,103.496645 301.986719,104.227303 C300.096751,104.957961 298.002229,105.323285 295.703093,105.323285 C293.384472,105.323285 291.275338,104.957961 289.375627,104.227303 C287.475917,103.496645 285.839267,102.454256 284.465631,101.100103 C283.091994,99.7459505 282.03012,98.0995594 281.279978,96.1608805 C280.529836,94.2222016 280.154771,92.0448737 280.154771,89.6288317 C280.154771,87.2322738 280.529836,85.0744299 281.279978,83.1552352 C282.03012,81.2360405 283.091994,79.6042623 284.465631,78.2598518 C285.839267,76.9154413 287.475917,75.8827937 289.375627,75.1618779 C291.275338,74.4409621 293.384472,74.0805096 295.703093,74.0805096 L295.703093,74.0805096 Z M295.703093,98.6012656 C297.787903,98.6012656 299.322262,97.8657477 300.306214,96.3946898 C301.290167,94.923632 301.782136,92.6878524 301.782136,89.687284 C301.782136,86.6867156 301.290167,84.455807 300.306214,82.9944913 C299.322262,81.5331755 297.787903,80.8025286 295.703093,80.8025286 C293.55983,80.8025286 291.991374,81.5331755 290.997679,82.9944913 C290.003985,84.455807 289.507145,86.6867156 289.507145,89.687284 C289.507145,92.6878524 290.003985,94.923632 290.997679,96.3946898 C291.991374,97.8657477 293.55983,98.6012656 295.703093,98.6012656 L295.703093,98.6012656 Z M337.964133,81.737766 C337.691354,82.0689976 337.428322,82.3320304 337.175027,82.5268725 C336.921732,82.7217146 336.56128,82.8191342 336.093659,82.8191342 C335.645522,82.8191342 335.24123,82.7119727 334.880772,82.4976464 C334.520315,82.2833201 334.116023,82.0446421 333.667886,81.7816052 C333.21975,81.5185684 332.693684,81.2798904 332.089673,81.0655641 C331.485663,80.8512378 330.735532,80.7440762 329.839258,80.7440762 C328.728658,80.7440762 327.769075,80.9486574 326.960481,81.3578258 C326.151886,81.7669942 325.484562,82.3515117 324.958488,83.1113959 C324.432414,83.8712801 324.042736,84.8016372 323.789441,85.9024951 C323.536147,87.003353 323.409501,88.2454527 323.409501,89.6288317 C323.409501,92.531979 323.969664,94.7628876 325.090006,96.3216244 C326.210348,97.8803612 327.754448,98.659718 329.722354,98.659718 C330.774501,98.659718 331.607438,98.5282015 332.221191,98.2651647 C332.834944,98.0021278 333.356139,97.7098691 333.784791,97.3883796 C334.213444,97.0668901 334.607993,96.7697604 334.968451,96.4969814 C335.328909,96.2242025 335.78191,96.0878151 336.327468,96.0878151 C337.048384,96.0878151 337.593933,96.350848 337.964133,96.8769216 L340.594489,100.121026 C339.659246,101.192658 338.675309,102.064563 337.642645,102.736769 C336.609982,103.408974 335.55298,103.93504 334.471606,104.314982 C333.390232,104.694924 332.304004,104.957957 331.212888,105.104088 C330.121772,105.25022 329.059899,105.323285 328.027236,105.323285 C326.176236,105.323285 324.40807,104.972574 322.722686,104.271142 C321.037302,103.569711 319.556524,102.551676 318.280308,101.217008 C317.004093,99.8823394 315.990929,98.2408193 315.240787,96.2923983 C314.490645,94.3439772 314.115579,92.1228106 314.115579,89.6288317 C314.115579,87.4466001 314.441935,85.4056597 315.094656,83.5059492 C315.747377,81.6062387 316.711831,79.9598476 317.988047,78.5667266 C319.264262,77.1736056 320.84246,76.0776352 322.722686,75.2787826 C324.602912,74.47993 326.78024,74.0805096 329.254735,74.0805096 C331.631809,74.0805096 333.716588,74.460446 335.509135,75.2203302 C337.301682,75.9802144 338.918848,77.0907978 340.360679,78.5521135 L337.964133,81.737766 Z M353.190968,61.1040905 L353.190968,85.6248465 L354.535371,85.6248465 C355.100413,85.6248465 355.52906,85.5420398 355.821323,85.376424 C356.113586,85.2108083 356.405845,84.9331624 356.698108,84.5434782 L362.426437,76.0094368 C362.777153,75.5223316 363.176573,75.1570081 363.62471,74.9134555 C364.072847,74.6699028 364.647622,74.5481283 365.349054,74.5481283 L373.649286,74.5481283 L365.816673,85.3325848 C365.076273,86.3067953 364.199496,87.1056359 363.186317,87.7291307 C363.634454,88.0603622 364.043616,88.4451696 364.413816,88.8835644 C364.784016,89.3219591 365.134727,89.813928 365.465959,90.3594859 L374,104.855666 L365.816673,104.855666 C365.134725,104.855666 364.550208,104.743633 364.063102,104.519565 C363.575997,104.295496 363.166835,103.900947 362.835603,103.335905 L357.107274,92.6099009 C356.834495,92.1227957 356.551978,91.806182 356.259715,91.6600504 C355.967452,91.5139189 355.529064,91.4408542 354.944538,91.4408542 L353.190968,91.4408542 L353.190968,104.855666 L344.130855,104.855666 L344.130855,61.1040905 L353.190968,61.1040905 Z" id="rawBlock" sketch:type="MSShapeGroup"></path>
        </g>
    </g>
</svg>