<?xml version="1.0" encoding="UTF-8" standalone="no"?>
<svg width="363px" height="357px" viewBox="0 0 363 357" version="1.1" xmlns="http://www.w3.org/2000/svg" xmlns:xlink="http://www.w3.org/1999/xlink" xmlns:sketch="http://www.bohemiancoding.com/sketch/ns">
    <!-- Generator: Sketch 3.3.2 (12043) - http://www.bohemiancoding.com/sketch -->
    <title>rawblock</title>
    <desc>Created with Sketch.</desc>
    <defs></defs>
    <g id="Page-1" stroke="none" stroke-width="1" fill="none" fill-rule="evenodd" sketch:type="MSPage">
        <rect id="Rectangle-1" stroke="#979797" fill="#C01D86" sketch:type="MSShapeGroup" x="1" y="1" width="90" height="77"></rect>
        <rect id="Rectangle-1-Copy-2" fill="#C01E86" sketch:type="MSShapeGroup" x="1" y="94" width="90" height="77"></rect>
        <rect id="Rectangle-1-Copy-4" fill="#C01E86" sketch:type="MSShapeGroup" x="1" y="187" width="90" height="77"></rect>
        <rect id="Rectangle-1-Copy-5" fill="#C01E86" sketch:type="MSShapeGroup" x="1" y="280" width="90" height="77"></rect>
        <rect id="Rectangle-1-Copy" fill="#D8D8D8" sketch:type="MSShapeGroup" x="108" y="1" width="90" height="77"></rect>
        <rect id="Rectangle-1-Copy-3" fill="#C01E86" sketch:type="MSShapeGroup" x="108" y="187" width="90" height="77"></rect>
        <rect id="Rectangle-1-Copy-6" fill="#C01E86" sketch:type="MSShapeGroup" x="198" y="280" width="90" height="77"></rect>
        <path d="M139.126719,140.76 C138.576719,136.195 137.146719,133.28 133.186719,131.85 C138.246719,130.365 140.831719,127.175 140.831719,122.39 C140.831719,115.68 136.046719,112.985 130.546719,112.325 C128.511719,112.105 126.971719,112.05 124.606719,112.05 L109.536719,112.05 L109.536719,150 L119.436719,150 L119.436719,135.59 L121.636719,135.59 C122.736719,135.59 123.671719,135.59 124.771719,135.645 C127.301719,135.81 128.951719,138.23 129.446719,142.41 C129.776719,145.105 130.326719,147.305 131.206719,150 L141.986719,150 C140.501719,147.745 139.621719,145.05 139.126719,140.76 L139.126719,140.76 Z M119.436719,128.44 L119.436719,119.75 L123.286719,119.75 C124.331719,119.75 125.211719,119.75 125.926719,119.805 C128.456719,120.025 130.491719,120.905 130.491719,124.095 C130.491719,127.285 128.181719,128.165 125.651719,128.385 C124.936719,128.44 124.056719,128.44 123.011719,128.44 L119.436719,128.44 Z M160.531719,150 L170.211719,150 C169.771719,146.755 169.661719,144.775 169.661719,142.575 L169.661719,134.325 C169.661719,132.51 169.606719,130.805 169.496719,129.32 C169.056719,123.985 165.866719,119.86 156.571719,119.86 C149.146719,119.86 143.041719,123.765 142.986719,130.64 L152.336719,130.585 C152.501719,128.055 153.821719,126.57 156.131719,126.57 C158.276719,126.57 159.486719,127.89 159.651719,129.375 C159.761719,130.31 159.761719,130.915 159.761719,131.52 L159.761719,131.96 L157.891719,131.96 C147.936719,131.96 141.996719,135.81 141.996719,142.08 C141.996719,147.745 146.561719,150.77 151.401719,150.77 C154.096719,150.77 156.571719,150.11 158.661719,148.79 L159.871719,145.71 L160.531719,150 Z M155.471719,144.06 C153.491719,144.06 152.116719,143.07 152.116719,141.31 C152.116719,138.395 155.306719,137.24 159.761719,137.57 L159.761719,139.495 C159.761719,142.575 157.451719,144.06 155.471719,144.06 L155.471719,144.06 Z M218.511719,120.63 L207.841719,120.63 L204.101719,141.695 L200.361719,120.85 L188.591719,120.85 L185.071719,141.64 L181.221719,120.63 L170.331719,120.63 L179.626719,150 L190.681719,150 L194.421719,130.2 L198.161719,150 L209.216719,150 L218.511719,120.63 Z M244.811719,129.375 C248.551719,128.055 250.366719,125.415 250.366719,121.95 C250.366719,117 246.846719,113.04 240.576719,112.27 C238.651719,112.05 237.771719,112.05 235.736719,112.05 L220.171719,112.05 L220.171719,150 L235.296719,150 C237.716719,150 238.981719,150 240.906719,149.78 C246.021719,149.175 251.796719,145.655 251.796719,138.56 C251.796719,133.94 249.596719,130.75 244.811719,129.375 L244.811719,129.375 Z M230.071719,119.75 L234.526719,119.75 C235.406719,119.75 236.286719,119.805 237.001719,119.915 C238.871719,120.19 240.026719,121.235 240.026719,123.38 C240.026719,125.635 238.761719,126.57 236.946719,126.845 C236.231719,126.955 235.406719,127.01 234.526719,127.01 L230.071719,127.01 L230.071719,119.75 Z M237.881719,142.245 C237.166719,142.3 236.286719,142.3 235.406719,142.3 L230.071719,142.3 L230.071719,134.16 L235.131719,134.16 C236.011719,134.16 236.891719,134.16 237.606719,134.215 C239.641719,134.38 241.456719,135.7 241.456719,138.23 C241.456719,140.705 239.641719,142.135 237.881719,142.245 L237.881719,142.245 Z M263.576719,109.575 L253.676719,109.575 L253.676719,139.605 C253.676719,141.805 253.676719,143.29 253.786719,144.83 C254.006719,148.735 256.591719,150.55 261.156719,150.55 C263.356719,150.55 265.116719,150.44 266.931719,150.275 L266.931719,143.565 C264.346719,143.675 263.851719,143.29 263.686719,142.135 C263.576719,141.42 263.576719,140.815 263.576719,139.44 L263.576719,109.575 Z M282.506719,119.86 C272.881719,119.86 266.721719,125.855 266.721719,135.315 C266.721719,144.72 272.881719,150.77 282.506719,150.77 C292.131719,150.77 298.291719,144.72 298.291719,135.315 C298.291719,125.855 292.131719,119.86 282.506719,119.86 L282.506719,119.86 Z M282.506719,144.06 C278.986719,144.06 276.841719,141.145 276.841719,135.315 C276.841719,129.43 278.986719,126.57 282.506719,126.57 C286.026719,126.57 288.171719,129.43 288.171719,135.315 C288.171719,141.145 286.026719,144.06 282.506719,144.06 L282.506719,144.06 Z M314.086719,119.86 C305.451719,119.86 298.631719,125.525 298.631719,135.645 C298.631719,145.325 305.011719,150.77 313.426719,150.77 C321.401719,150.77 327.286719,146.81 328.386719,139.22 L318.651719,139.22 C318.101719,142.41 316.231719,144.06 313.976719,144.06 C310.621719,144.06 308.751719,141.31 308.751719,135.04 C308.751719,129.375 310.566719,126.57 313.866719,126.57 C316.341719,126.57 318.266719,128 318.706719,131.85 L328.276719,131.85 C328.001719,125.25 322.721719,119.86 314.086719,119.86 L314.086719,119.86 Z M342.256719,139.11 L350.121719,150 L362.276719,150 L349.681719,134.105 L362.111719,120.63 L350.506719,120.63 L340.166719,132.95 L340.166719,109.575 L330.266719,109.575 L330.266719,150 L340.166719,150 L340.166719,141.42 L342.256719,139.11 Z" id="RawBlock" fill="#191818" sketch:type="MSShapeGroup"></path>
    </g>
</svg>